<svg xmlns="http://www.w3.org/2000/svg" width="555.323" height="555.323" viewBox="0 0 146.929 146.929">
    <g transform="translate(-27.077 -70.077)">
        <circle cx="100.542" cy="143.542" r="72.965" fill="#00a3e8"/>
        <path d="M80.192 170.242l-13.334 25.006m35.768-25.006l-13.334 25.006m35.768-25.006l-13.334 25.006" fill="none" stroke="#000" stroke-width="4.5" stroke-linecap="round"/>
        <path d="M74.9 159.71h56.25c8.366 0 17.024-11.41 17.024-20.883 0-10.36-7.533-20.014-20.113-19.938-.157-18.365-13.145-30.994-27.04-30.994-14.133 0-25.035 10.755-26.372 24.096-12.817.844-20.468 12.458-20.447 23.813.02 11.159 10.842 23.907 20.697 23.907z"/>
        <circle r="5.906" cy="135.6" cx="83.852" fill="none" stroke="#00a3e8" stroke-width="1.8"/>
        <circle cx="117.208" cy="135.6" r="5.906" fill="none" stroke="#00a3e8" stroke-width="1.8"/>
        <path d="M105.286 123.563h-5.68c-1.91 0-4.44-3.228-4.564-4.786-.025-.318-.244-1.027-.9-1.027H82.034c-.378 0-.683.422-.835.769-.174.397 0 1.303 0 1.303l18.876 15.3h1.069l15.836-11.592c.178-4.837-3.463-11.348-10.357-11.894" fill="none" stroke="#00a3e8" stroke-width="1.8" stroke-linecap="round"/>
    </g>
</svg>
