<svg xmlns="http://www.w3.org/2000/svg" width="555.323" height="555.323" viewBox="0 0 146.929 146.929">
    <g transform="translate(-27.077 -70.077)">
        <path d="M100.542 70.577a72.965 72.965 0 0 0-72.965 72.965 72.965 72.965 0 0 0 72.965 72.964 72.965 72.965 0 0 0 72.964-72.964 72.965 72.965 0 0 0-72.964-72.965zm.48 17.318c13.894 0 26.882 12.629 27.04 30.994 12.579-.076 20.112 9.579 20.112 19.938 0 9.474-8.658 20.883-17.025 20.883H74.9c-9.855 0-20.677-12.748-20.697-23.907-.02-11.354 7.63-22.968 20.447-23.812 1.337-13.342 12.239-24.096 26.372-24.096zm-20.872 80.07a2.25 2.25 0 0 1 2.028 3.336l-13.334 25.006a2.25 2.25 0 1 1-3.97-2.118l13.333-25.005a2.25 2.25 0 0 1 1.943-1.22zm22.434 0a2.25 2.25 0 0 1 2.027 3.336l-13.334 25.006a2.25 2.25 0 1 1-3.97-2.118l13.334-25.005a2.25 2.25 0 0 1 1.943-1.22zm22.435 0a2.25 2.25 0 0 1 2.026 3.336l-13.334 25.006a2.25 2.25 0 1 1-3.97-2.118l13.333-25.005a2.25 2.25 0 0 1 1.945-1.22z"/>
        <circle r="5.906" cy="135.6" cx="83.852" fill="none" stroke="#000" stroke-width="1.8"/>
        <circle cx="117.208" cy="135.6" r="5.906" fill="none" stroke="#000" stroke-width="1.8"/>
        <path d="M105.286 123.563h-5.68c-1.91 0-4.44-3.228-4.564-4.786-.025-.318-.244-1.027-.9-1.027H82.034c-.378 0-.683.422-.835.769-.174.397 0 1.303 0 1.303l18.876 15.3h1.069l15.836-11.592c.178-4.837-3.463-11.348-10.357-11.894" fill="none" stroke="#000" stroke-width="1.8" stroke-linecap="round"/>
    </g>
</svg>
